<?xml version="1.0" encoding="utf-8"?>
<!-- Generator: Adobe Illustrator 24.1.2, SVG Export Plug-In . SVG Version: 6.00 Build 0)  -->
<svg version="1.1" id="Layer_1" xmlns="http://www.w3.org/2000/svg" xmlns:xlink="http://www.w3.org/1999/xlink" x="0px" y="0px"
	 viewBox="0 0 347 313" enable-background="new 0 0 347 313" xml:space="preserve">
<g id="_x35_IhnVH.tif">
	<g>
		<path fill="#FEFEFE" d="M338.36,298.65c0.78-13.58,0.76-27.13,1.32-40.71c0.63-15.11,2.53-30.12,3.6-45.2
			c1.06-14.88,1.91-29.76,2.76-44.65c0.1-1.83,0.48-3.54,1.08-5.13c-0.13-0.77-0.25-1.55-0.38-2.32
			c-4.16-24.74-9.02-49.72-7.41-74.93c1.57-24.57,3.35-49.09,3.61-73.71H174.98c-0.16,0.25-0.13,0.47,0.08,0.67
			c2.97,1.09,6.14,0.88,9.2,1.32c22.42,3.23,41.21,13.35,56.18,30.21c15.89,17.9,23.31,39.11,23.13,63.02
			c-0.01,1.03,0.03,2.06-0.04,3.09c-0.07,1.65-0.64,3.27-0.27,4.95c0.04,0.33,0.01,0.67-0.01,1.01c-0.01-0.61-0.04-1.21-0.14-1.81
			c-1.31-7.95-3.89-15.47-7.28-22.76c-7.43-16.01-18.58-28.82-33.3-38.45c-19.4-12.69-40.81-17.28-63.67-14.34
			c-23.33,3.01-42.73,13.86-58.16,31.52C89.47,83.3,82.48,98.36,79.5,115.23c0.37-2.33-0.37-4.61-0.28-6.92
			c-0.24-5.2,0.24-10.37,0.94-15.5c3.05-22.25,12.95-40.99,29.56-56.02c14.06-12.72,30.63-20.33,49.49-22.88
			c2.83-0.38,5.76-0.19,8.49-1.23c0.22-0.2,0.24-0.42,0.08-0.67H10.8c-0.13,2.74-0.37,5.48-0.71,8.25
			c-1.01,8.12-1.97,15.26-2.28,24.64c-0.6,17.77-1.32,35.47-2.34,53.23c-0.94,16.32-1.16,32.62-1.82,48.95
			c-0.31,7.69-2.25,17.02-2.79,23.46c-0.01,0.1-0.02,0.83-0.03,1.58c0.09,0.23,0.19,0.46,0.3,0.65c1.52,2.72,2.72,5.58,3.63,8.57
			c8.26,27.13,1.28,55.15-0.64,82.6c-0.46,6.55-0.62,13.13-0.13,19.67c0.05,0.63,0.45,3.96,0.34,3.48c0.22,1.33,0.46,2.65,0.74,3.97
			c0.33,1.5,0.7,3,1.12,4.47c0.28,0.99,0.62,1.96,0.92,2.95c0.03,0.1,0.23,0.61,0.37,1c0.02-0.03,0.27,0.13,0.7,0.57
			c0.16,0.1,0.35,0.21,0.58,0.33c0.91,0.48,1.83,0.92,2.74,1.39c-2.71-1.37-0.43-0.25,1.01,0.2c1.09,0.34,2.2,0.65,3.31,0.93
			c2.31,0.59,4.66,1.05,7.01,1.45c1.04,0.18,2.09,0.33,3.13,0.48c0.38,0.05,1.25,0.16,1.92,0.24c2.34,0.27,4.68,0.52,7.01,0.77
			c5.32,0.57,10.63,1.19,15.89,2.16c3.15,0.58,6.2,1.16,9.2,1.7c2.1-1.8,4.59-3.17,7.32-3.92c7.05-1.92,14.74-0.07,21.57,1.92
			c4.6,1.34,9.23,2.28,13.9,3.35c1.04,0.24,2.08,0.48,3.13,0.71c0.69-0.29,1.42-0.54,2.2-0.72c18.02-4.16,35.7-0.32,53.83,0.17
			c16.56,0.45,33.04-1.59,49.6-1.37c17.18,0.23,34.37,1.51,51.54,0.3c17.26-1.22,33.49-4.69,51.07-5.98
			c7.72-0.57,15.42-0.49,23.16-0.4c0.26,0,0.53,0,0.79,0C338.17,302.06,338.27,300.36,338.36,298.65z M263.26,116.71
			c0.01,0.22,0.03,0.45,0.11,0.66C263.17,117.19,263.22,116.95,263.26,116.71z"/>
		<path fill="#E3EBF4" d="M174.98,12c0,0.14,0.01,0.29,0.01,0.43c-0.68,0.72-1.45,0.65-2.26,0.27c-0.25-0.19-0.3-0.43-0.15-0.71
			C173.38,12,174.18,12,174.98,12z"/>
		<path fill="#C9D9EA" d="M172.58,12c0.01,0.14,0.01,0.28,0.01,0.42c-0.67,0.74-1.44,0.67-2.26,0.29c-0.25-0.19-0.3-0.43-0.15-0.71
			C170.98,12,171.78,12,172.58,12z"/>
		<path fill="#E4ECF5" d="M170.18,12c0,0.14-0.01,0.28-0.01,0.42c-0.79,0.75-1.59,0.74-2.4,0.01c0-0.15,0-0.29,0.01-0.44
			C168.58,12,169.38,12,170.18,12z"/>
		<path fill="#C5D5E5" d="M262.81,116.54c-0.31-3.26-1.05-6.44-1.96-9.56c-1.41-4.82-3-9.57-5.1-14.16
			c-3.04-6.63-6.7-12.88-11.27-18.54c-3.14-3.9-6.34-7.74-10.19-11.05c-3.21-2.76-6.43-5.46-9.87-7.92
			c-5.82-4.16-12.11-7.4-18.68-10.13c-7.03-2.91-14.4-4.63-21.89-5.74c-6.65-0.99-13.4-0.89-20.08-0.48
			c-7.47,0.47-14.8,2.07-21.92,4.49c-10.83,3.68-20.67,9.15-29.48,16.48c-11.17,9.29-19.78,20.53-25.71,33.79
			c-3.33,7.45-5.51,15.25-6.93,23.88c-0.96-3.38-0.92-6.34-1.14-9.25c0.81-2.53,0.58-5.19,1.09-7.78
			c3.9-19.96,13.28-36.9,28.11-50.71c15.03-14,32.93-22.28,53.35-24.43c26.12-2.75,49.6,4.24,69.9,20.96
			c17.85,14.71,28.55,33.71,32.57,56.49c0.18,1.04,0.12,2.07,0.16,3.1c0.04,1.45,0.14,2.89,0.45,4.32c0.05,1.79-0.72,3.5-0.47,5.31
			C263.31,115.81,263.76,116.85,262.81,116.54z"/>
		<path fill="#C5D5E5" d="M134.64,301.72c2.8-4.37,5.51-8.77,7.77-13.46c4.04-8.39,6.69-17.17,8.17-26.37
			c1.1-6.83,1.15-13.69,0.77-20.52c-0.37-6.66-1.56-13.25-3.61-19.65c-1.73-5.4-3.65-10.72-6.29-15.74
			c-3.2-6.08-6.91-11.82-11.38-17.07c-6.25-7.34-13.24-13.83-21.42-18.94c-9.75-6.09-20.18-10.47-31.53-12.68
			c-7.56-1.47-15.15-2.13-22.81-1.79c-5.08,0.23-10.11,0.99-15.1,2.06c-11.69,2.52-22.42,7.24-32.3,13.94
			c-0.76,0.51-1.42,1.29-2.73,1.39c1.42-2.28,3.17-4.06,4.77-5.94c0.29,0.07,0.43-0.15,0.61-0.3c0.19-0.2,0.38-0.4,0.59-0.58
			c0.46-0.44,1.02-0.76,1.44-1.25c7.44-6.27,15.94-10.71,25.04-13.85c25.02-8.64,49.74-7.58,73.32,4.49
			c28.32,14.5,45.35,37.9,50.54,69.35c3.9,23.64-1.52,45.54-14.34,65.68c-0.56,0.88-1.22,1.68-1.87,2.49
			c-1.1,1.35-2.37,2.56-3.36,4.01l0.03-0.03c-0.14,0.1-0.19,0.2-0.15,0.31c0.04,0.11,0.07,0.17,0.12,0.17
			c-1.92,1.6-3.83,3.21-5.75,4.81C134.7,302.34,134.53,302.18,134.64,301.72z"/>
		<path fill="#C5D5E5" d="M333.38,166.44c1.89,1.67,3.37,3.68,4.77,5.76c0.13,0.13,0.17,0.26,0.12,0.38
			c-0.05,0.12-0.1,0.18-0.15,0.18c-3.58-2.09-6.97-4.47-10.66-6.4c-5.32-2.78-10.79-5.13-16.5-6.94
			c-5.32-1.68-10.78-2.87-16.32-3.39c-5.77-0.55-11.55-0.87-17.4-0.27c-4.68,0.48-9.31,1.05-13.9,2.05
			c-5.78,1.26-11.37,3.11-16.76,5.51c-7.39,3.29-14.29,7.45-20.6,12.52c-4.6,3.7-8.81,7.84-12.62,12.38
			c-2.88,3.42-5.54,6.97-7.93,10.76c-5.41,8.58-9.29,17.78-11.66,27.61c-1,4.17-1.62,8.41-2.1,12.68c-0.56,4.95-0.54,9.9-0.27,14.81
			c0.35,6.5,1.46,12.93,3.27,19.23c1.88,6.55,4.44,12.81,7.68,18.78c1.79,3.29,3.85,6.42,5.79,9.63c0.1,0.45-0.02,0.67-0.51,0.5
			c-1.57-1.46-3.53-2.46-4.8-4.26c-0.33-0.55-0.67-1.09-1.19-1.49c-1.02-0.9-1.78-2.05-2.74-3.01
			c-9.38-12.97-15.01-27.38-16.96-43.27c-2.25-18.44,0.76-36.02,8.97-52.61c8.69-17.53,21.66-31.11,38.89-40.53
			c13.95-7.63,28.82-11.38,44.79-11.45c19.11-0.09,36.35,5.42,52.23,15.75c1.21,0.79,2.34,1.67,3.45,2.58
			c0.6,0.64,1.31,1.15,1.96,1.73C332.61,165.91,332.83,166.41,333.38,166.44z"/>
		<path fill="#0956A4" d="M263.34,105.97c-1.1-9.27-3.61-18.18-7.65-26.58c-13.29-27.61-34.97-44.87-64.79-51.85
			c-7.89-1.84-15.96-2.44-24.05-1.99c-42.7,2.37-76.45,32.13-85.74,71.24c-0.74,3.1-1.4,6.23-1.68,9.42
			c-0.07,0.79-0.13,1.59-0.85,2.12c-0.04-8.56,0.73-17.03,2.76-25.38c8.47-34.75,36.66-61.72,71.74-68.67
			c4.86-0.96,9.78-1.43,14.7-1.86c0.8,0.15,1.6,0.14,2.4-0.01c0.81,0.12,1.61,0.13,2.42-0.01c0.8,0.17,1.6,0.17,2.4,0.02
			c11.98,0.71,23.6,3.04,34.49,8.19c28.99,13.7,46.74,36.32,53.17,67.73c1.25,6.11,1.71,12.33,1.51,18.58
			C263.21,107.19,263.68,106.23,263.34,105.97z"/>
		<path fill="#0956A4" d="M143.7,292.98c3.06-4.68,6.02-9.41,8.39-14.48c4.88-10.45,7.81-21.38,8.58-32.91
			c1.59-23.91-4.94-45.36-19.76-64.12c-14.37-18.2-33.13-29.41-55.95-33.8c-8.3-1.6-16.68-1.92-25.05-1.19
			c-17.42,1.53-33.19,7.61-47.25,18.04c-0.45,0.33-0.92,0.63-1.37,0.95c-0.43,0.19-0.51,0.01-0.38-0.37
			c5.02-5.43,10.78-9.97,17.01-13.89c11.87-7.47,24.77-12.01,38.72-13.64c47.51-5.53,90.95,25.77,101.07,71.37
			c6.92,31.18-0.62,58.97-21.63,83.06c-0.52,0.6-1.13,1.11-1.69,1.67C143.83,293.77,143.6,293.54,143.7,292.98z"/>
		<path fill="#0956A4" d="M330.39,164.59c-6.51-4.68-13.41-8.66-20.84-11.71c-13.8-5.66-28.19-7.76-42.96-6.4
			c-24.08,2.23-44.43,12.37-60.73,30.27c-12.25,13.46-19.91,29.25-22.73,47.25c-3.9,24.9,1.43,47.73,15.78,68.46
			c0.23,0.33,0.41,0.68,0.61,1.03c0.11,0.54-0.1,0.76-0.64,0.63c-7.18-7.09-12.76-15.33-17.11-24.39
			c-5.14-10.69-8.01-21.97-8.85-33.83c-3.22-45.56,27.83-87.86,73.94-97.01c31.62-6.28,59.45,2.17,83.12,24.11
			c0.35,0.32,0.64,0.71,0.96,1.06C331.03,164.51,330.88,164.72,330.39,164.59z"/>
		<path fill="#FDB928" d="M160.11,150.37c0.22-1.14,0.43-2.31,0.68-3.46c0.37-1.66,0.41-3.34,0.2-5.01
			c-0.34-2.75-1.83-4.15-4.61-4.25c-2.39-0.08-4.79,0.06-7.19,0.07c-1.36,0-2.73,0.06-4.07-0.14c-3.39-0.48-5.47-3.75-4.15-6.91
			c0.8-1.9,0.53-3.08-0.93-4.38c-1.18-1.05-1.08-1.16,0.33-2.92c-0.25-0.19-0.48-0.4-0.74-0.56c-1.95-1.24-1.95-1.24-0.61-3.19
			c0.78-1.14,0.22-2.68-1.14-2.95c-0.94-0.18-1.92-0.13-2.86-0.31c-2.76-0.52-3.72-2.51-2.3-4.96c1.6-2.77,3.34-5.45,5.02-8.16
			c0.38-0.61,0.79-1.21,1.12-1.84c0.99-1.91,1.09-3.9-0.07-5.71c-0.75-1.18-0.95-2.33-0.76-3.63c1.86-12.56,9.23-25.85,26.43-29.12
			c11.08-2.1,21.5-0.37,30.68,6.6c8.17,6.2,13.23,14.41,15.21,24.46c1.32,6.68,0.07,13.01-2.97,19.04
			c-2.42,4.8-5.34,9.29-8.72,13.45c-2.12,2.61-2.58,5.34-1.6,8.5c1.55,4.95,2.99,9.94,4.45,14.91c0.5,1.71,0.47,1.78-1.27,1.78
			c-6.08,0.02-12.15-0.01-18.23,0.03c-1.19,0.01-1.65-0.35-1.76-1.61c-0.62-7.21-2.24-14.15-5.5-20.7c-1.51-3.04-2.1-6.35-1.25-9.78
			c0.51-2.07,1.32-4.01,2.96-5.37c4.87-4.05,7.36-9.55,9.53-15.26c0.97-2.54,1.62-5.18,2.32-7.8c1.24-4.61,5.35-7.76,10.06-7.71
			c1.12,0.01,1.35,0.29,0.95,1.27c-0.24,0.59-0.59,1.13-0.88,1.7c-3.1,6.22-5.09,12.74-5.14,19.75c-0.01,1.92,0.27,3.82,0.72,5.69
			c0.4,1.62,0.64,1.72,2.07,0.79c5.37-3.51,8.84-8.35,9.59-14.77c1.6-13.73-5.69-23.21-15.06-27.7c-7.53-3.61-15.46-5.1-23.76-3.59
			c-10.71,1.95-17.59,8.28-20.57,18.7c-1.32,4.61-1.92,9.38-1.97,14.19c-0.06,6.01,1.64,11.49,4.87,16.53
			c2.3,3.58,5.04,6.8,7.95,9.89c1.59,1.69,3.22,3.34,4.77,5.06c0.8,0.89,1.56,1.83,2.2,2.83c4.28,6.62,1.68,12.42-3.05,16.31
			C160.84,150.35,160.58,150.52,160.11,150.37z"/>
		<path fill="#2569AE" d="M143.7,292.98c0.23,0.23,0.46,0.45,0.69,0.68c-0.98,1.29-2.02,2.53-3.48,3.32
			C141.38,295.32,142.62,294.2,143.7,292.98z"/>
		<path fill="#286BAF" d="M198.87,294.12c0.21-0.21,0.43-0.42,0.64-0.63c0.98,0.83,1.58,1.96,2.36,2.94
			c0.19,0.24,0.17,0.47-0.05,0.69C200.72,296.24,199.68,295.29,198.87,294.12z"/>
		<path fill="#709CC8" d="M263.34,105.97c0.27,0.32,0.55,0.64,0.82,0.96c0.25,1.12,0.02,2.24,0.03,3.36
			C263.54,108.92,263.25,107.48,263.34,105.97z"/>
		<path fill="#3D79B6" d="M330.39,164.59c0.18-0.18,0.36-0.36,0.54-0.53c0.65,0.29,1.07,0.82,1.47,1.38
			c0.19,0.26,0.17,0.51-0.06,0.74C331.64,165.7,330.85,165.35,330.39,164.59z"/>
		<path fill="#DBE4EE" d="M207.61,302.21c0.17-0.17,0.34-0.33,0.51-0.5c0.56,0.39,1.15,0.75,1.3,1.73
			C208.62,303.09,208.05,302.76,207.61,302.21z"/>
		<path fill="#E7EDF4" d="M262.81,116.54c0.31-0.31,0.61-0.63,0.92-0.94c0,0.38,0.04,0.76-0.01,1.13c-0.06,0.4-0.07,1.03-0.7,0.84
			C262.63,117.44,262.83,116.9,262.81,116.54z"/>
		<path fill="#DEE7F0" d="M134.64,301.72c0.17,0.17,0.34,0.34,0.52,0.51c-0.28,0.62-0.75,0.95-1.44,0.95l-0.01-0.01
			C133.7,302.48,134.04,302.02,134.64,301.72z"/>
		<path fill="#DEE7F0" d="M338.12,172.75c0.01-0.19,0.02-0.37,0.03-0.56c0.57,0.37,1.15,0.72,1.3,1.69
			C338.74,173.69,338.4,173.26,338.12,172.75z"/>
		<path fill="#2D6FB1" d="M10.91,165.08c0.13,0.12,0.25,0.25,0.38,0.37c-0.32,0.52-0.76,0.88-1.38,0.99
			c-0.13-0.1-0.17-0.19-0.12-0.28c0.05-0.09,0.1-0.13,0.15-0.13C10.17,165.63,10.46,165.27,10.91,165.08z"/>
		<path fill="#588CC1" d="M332.33,166.17c0.02-0.25,0.04-0.49,0.06-0.74c0.44,0.22,0.75,0.58,0.98,1
			C332.84,167.12,332.62,166.5,332.33,166.17z"/>
		<path fill="#5E90C2" d="M201.83,297.11c0.02-0.23,0.03-0.46,0.05-0.69c0.58,0.35,0.98,0.8,0.93,1.52
			C202.32,297.86,202.02,297.55,201.83,297.11z"/>
		<path fill="#4880BA" d="M9.94,166.04c0.01,0.14,0,0.27-0.03,0.41c-0.03,0.29-0.19,0.44-0.48,0.43c-0.13-0.09-0.17-0.18-0.12-0.25
			c0.05-0.07,0.09-0.11,0.14-0.11C9.54,166.27,9.68,166.09,9.94,166.04z"/>
		<path fill="#6494C3" d="M9.46,166.51c0.01,0.12,0,0.25-0.03,0.37c-0.1,0.47-0.27,0.44-0.48,0.06
			C9.12,166.8,9.29,166.65,9.46,166.51z"/>
		<path fill="#DEE7F0" d="M133.72,303.18c-0.04,0.07-0.09,0.2-0.11,0.19C133.44,303.33,133.47,303.25,133.72,303.18
			C133.71,303.17,133.72,303.18,133.72,303.18z"/>
		<path fill="#2E6FB2" d="M140.91,297.42c-0.2-0.04-0.39-0.11-0.31-0.36c0.02-0.07,0.22-0.08,0.34-0.11
			C140.93,297.1,140.92,297.26,140.91,297.42z"/>
	</g>
</g>
</svg>
